<svg fill="none" height="512" width="2724" xmlns="http://www.w3.org/2000/svg"><linearGradient id="a" gradientUnits="userSpaceOnUse" x1="0" x2="512" y1="256" y2="256"><stop offset="0" stop-color="#00f2fe"/><stop offset=".021" stop-color="#03effe"/><stop offset=".293" stop-color="#24d2fe"/><stop offset=".554" stop-color="#3cbdfe"/><stop offset=".796" stop-color="#4ab0fe"/><stop offset="1" stop-color="#4facfe"/></linearGradient><path d="M432 236h-76c-44.112 0-80-35.888-80-80V80c0-44.112 35.888-80 80-80h76c44.112 0 80 35.888 80 80v76c0 44.112-35.888 80-80 80zM356 40c-22.056 0-40 17.944-40 40v76c0 22.056 17.944 40 40 40h76c22.056 0 40-17.944 40-40V80c0-22.056-17.944-40-40-40zM156 236H80c-44.112 0-80-35.888-80-80V80C0 35.888 35.888 0 80 0h76c44.112 0 80 35.888 80 80v76c0 44.112-35.888 80-80 80zM80 40c-22.056 0-40 17.944-40 40v76c0 22.056 17.944 40 40 40h76c22.056 0 40-17.944 40-40V80c0-22.056-17.944-40-40-40zm76 472H80c-44.112 0-80-35.888-80-80v-76c0-44.112 35.888-80 80-80h76c44.112 0 80 35.888 80 80v76c0 44.112-35.888 80-80 80zM80 316c-22.056 0-40 17.944-40 40v76c0 22.056 17.944 40 40 40h76c22.056 0 40-17.944 40-40v-76c0-22.056-17.944-40-40-40zm432 116c0-11.046-8.954-20-20-20s-20 8.954-20 20c0 22.056-17.944 40-40 40h-76c-22.056 0-40-17.944-40-40v-76c0-22.056 17.944-40 40-40h76a40.03 40.03 0 0136.675 23.996c4.425 10.12 16.218 14.735 26.338 10.312 10.121-4.426 14.737-16.218 10.312-26.338C492.582 294.829 463.8 276 432 276h-76c-44.112 0-80 35.888-80 80v76c0 44.112 35.888 80 80 80h76c44.112 0 80-35.888 80-80z" fill="url(#a)"/><path d="M926.636 255.546c0-94.035-57.386-149.432-133.664-149.432-76.421 0-133.665 55.397-133.665 149.432 0 93.892 57.244 149.431 133.665 149.431 18.466 0 35.795-3.267 51.562-9.517L868.54 426h51.136l-40.341-51.705c29.262-25.568 47.301-66.051 47.301-118.749zm-151.562 47.727l39.347 51.704c-6.819 1.847-13.921 2.699-21.449 2.699-47.301 0-80.682-35.937-80.682-102.13 0-66.194 33.381-102.131 80.682-102.131 47.443 0 80.681 35.937 80.681 102.131 0 35.795-9.659 62.642-26.136 79.829l-24.716-32.102zm340.566 5.966c0 33.238-23.72 49.716-46.45 49.716-24.72 0-41.19-17.472-41.19-45.171V182.818h-51.423v138.921c0 52.414 29.833 82.102 72.723 82.102 32.67 0 55.69-17.188 65.63-41.619h2.27V401h49.86V182.818h-51.42zM1221.94 401h51.42V182.818h-51.42zm25.85-249.148c16.33 0 29.69-12.5 29.69-27.841 0-15.483-13.36-27.983-29.69-27.983-16.48 0-29.83 12.5-29.83 27.983 0 15.341 13.35 27.841 29.83 27.841zm175.61 253.409c54.83 0 89.78-32.528 93.47-78.835h-49.15c-4.4 23.438-21.31 36.932-43.89 36.932-32.1 0-52.84-26.847-52.84-71.449 0-44.034 21.16-70.454 52.84-70.454 24.72 0 39.91 15.909 43.89 36.931h49.15c-3.55-47.301-40.48-78.409-93.75-78.409-63.92 0-104.26 46.165-104.26 112.784 0 66.052 39.34 112.5 104.54 112.5zM1561.09 401h51.42v-73.295l18.75-20.029L1698.02 401h61.51l-89.49-124.006 84.52-94.176h-60.09l-78.41 87.642h-3.55V110.091h-51.42zm390.11-210.937h50.71c-1-49.148-42.9-83.949-104.83-83.949-61.08 0-106.96 34.375-106.82 85.795 0 41.761 29.69 65.767 77.56 78.125l33.09 8.523c31.39 7.954 52.13 17.756 52.27 40.341-.14 24.858-23.72 41.477-58.09 41.477-32.96 0-58.52-14.773-60.66-45.312h-51.84c2.13 57.812 45.17 90.34 112.92 90.34 69.75 0 110.23-34.801 110.37-86.079-.14-50.426-41.76-73.438-85.51-83.807l-27.27-6.818c-23.86-5.682-49.72-15.767-49.43-40.057.14-21.875 19.74-37.926 52.7-37.926 31.39 0 52.13 14.631 54.83 39.347zm210.34-7.245h-43.04v-52.272h-51.42v52.272h-30.96v39.773h30.96v121.307c-.28 41.051 29.55 61.221 68.18 60.085 14.63-.426 24.72-3.267 30.26-5.114l-8.67-40.199c-2.84.711-8.66 1.989-15.05 1.989-12.93 0-23.3-4.545-23.3-25.284V222.591h43.04zm107.79 222.585c34.23 0 54.69-16.051 64.06-34.375h1.71V401h49.43V254.977c0-57.67-47.02-75-88.64-75-45.88 0-81.11 20.455-92.47 60.228l48.01 6.818c5.12-14.915 19.6-27.699 44.75-27.699 23.86 0 36.93 12.216 36.93 33.665v.852c0 14.773-15.48 15.483-53.98 19.602-42.33 4.546-82.81 17.188-82.81 66.335 0 42.898 31.39 65.625 73.01 65.625zm13.35-37.784c-21.45 0-36.79-9.801-36.79-28.693 0-19.744 17.19-27.983 40.2-31.25 13.5-1.846 40.48-5.255 47.16-10.653v25.71c0 24.29-19.6 44.886-50.57 44.886zM2438.23 401h51.42V272.733c0-27.699 20.88-47.301 49.15-47.301 8.67 0 19.46 1.562 23.86 2.983v-47.301c-4.68-.853-12.78-1.421-18.46-1.421-25 0-45.88 14.205-53.84 39.489h-2.27v-36.364h-49.86zm281.26-218.182h-43.04v-52.272h-51.42v52.272h-30.96v39.773h30.96v121.307c-.28 41.051 29.55 61.221 68.19 60.085 14.63-.426 24.71-3.267 30.25-5.114l-8.66-40.199c-2.84.711-8.67 1.989-15.06 1.989-12.93 0-23.3-4.545-23.3-25.284V222.591h43.04z" fill="#469fed" /></svg>
