<svg width="512" height="512" viewBox="0 0 512 512" fill="currentColor" xmlns="http://www.w3.org/2000/svg"><path fill-rule="evenodd" clip-rule="evenodd" d="M252.399 116.045H206.081C203.631 116.045 202.33 115.585 200.798 113.899L181.045 94.13L180.892 93.9767C176.681 89.9922 173.159 88 165.733 88H81.7438C69.6469 88 60.0766 97.0417 60.0766 108.152V172.517C60.0766 173.896 61.6078 173.82 62.6797 173.13C63.8281 172.441 67.0437 171.981 68.8047 171.981H348.303V163.134H305.697C290.865 163.134 277.43 157.06 267.804 147.478C259.604 139.316 253.909 128.344 252.399 116.045ZM348.303 196.501H74.0875C66.3547 196.501 60.0766 202.861 60.0766 210.523V396.492H60V396.415C60 396.441 59.9999 396.466 60 396.492C60.0417 411.705 72.5049 424 87.5625 424H423.902C439.291 424 451.847 411.434 451.847 396.032V225.339C443.883 245.123 424.456 259 402 259C387.169 259 373.733 252.926 364.107 243.344C354.479 233.759 348.303 220.3 348.303 205.366V196.501ZM415.697 196.501V205.366C415.697 212.865 409.533 219 402 219C398.233 219 394.809 217.466 392.327 214.995C389.844 212.524 388.303 209.115 388.303 205.366V196.501H415.697ZM415.697 171.981H388.303V123.134H305.697C301.93 123.134 298.506 121.6 296.023 119.129C295.108 118.218 294.321 117.18 293.692 116.045H432.017C438.658 116.045 444.157 118.718 447.694 123.134H415.697V171.981Z" /><path d="M498.303 95.8658H415.696V13.6342C415.696 6.13541 409.533 0 402 0C394.467 0 388.303 6.13541 388.303 13.6342V95.8658H305.696C298.163 95.8658 292 102.001 292 109.5C292 113.249 293.541 116.658 296.023 119.129C298.506 121.6 301.93 123.134 305.696 123.134H388.303V205.366C388.303 209.115 389.844 212.524 392.327 214.995C394.809 217.466 398.233 219 402 219C409.533 219 415.696 212.865 415.696 205.366V123.134H498.303C505.837 123.134 512 116.999 512 109.5C512 102.001 505.837 95.8658 498.303 95.8658Z" /></svg>
