<svg width="512" height="512" viewBox="0 0 512 512" fill="currentColor" xmlns="http://www.w3.org/2000/svg"><path fill-rule="evenodd" clip-rule="evenodd" d="M285.026 60H165.25C148.518 60 135 73.4744 135 90.1526V448.214C135 451.324 138.592 453.114 141.05 451.23L251.462 364.541C254.204 362.562 257.891 362.562 260.537 364.541L370.95 451.23C373.408 453.114 377 451.324 377 448.214V252.82C372.216 250.3 367.87 247.09 364.107 243.344C354.479 233.759 348.303 220.3 348.303 205.366V163.134H305.697C290.865 163.134 277.43 157.06 267.804 147.478C258.175 137.893 252 124.434 252 109.5C252 87.1226 265.706 68.0747 285.026 60ZM377 95.8658V123.134H305.697C301.93 123.134 298.506 121.6 296.023 119.129C293.541 116.658 292 113.249 292 109.5C292 102.001 298.163 95.8658 305.697 95.8658H377Z" /><path d="M498.303 95.8658H415.696V13.6342C415.696 6.13541 409.533 0 402 0C394.467 0 388.303 6.13541 388.303 13.6342V95.8658H305.696C298.163 95.8658 292 102.001 292 109.5C292 113.249 293.541 116.658 296.023 119.129C298.506 121.6 301.93 123.134 305.696 123.134H388.303V205.366C388.303 209.115 389.844 212.524 392.327 214.995C394.809 217.466 398.233 219 402 219C409.533 219 415.696 212.865 415.696 205.366V123.134H498.303C505.837 123.134 512 116.999 512 109.5C512 102.001 505.837 95.8658 498.303 95.8658Z" /></svg>
